# xmcd
#
# Track frame offsets: 
#        150
#        23735
#        37264
#        55716
#        66631
#        76950
#        88322
#        98581
#        112815
#        123492
#        135254
#        152384
#        168092
#        180430
#
# Disc length: 2955 seconds
#
# Revision: 2
# Processed by: cddbd v1.5.2PL0 Copyright (c) Steve Scherf et al.
# Submitted via: ExactAudioCopy v1.1
#
DISCID=a70b890e
DTITLE=Creedence Clearwater Revival - The Concert
DYEAR=1980
DGENRE=Southern Rock
TTITLE0=Born On The Bayou
TTITLE1=Green River
TTITLE2=Tombstone Shadow
TTITLE3=Don't Look Now
TTITLE4=Travelin' Band
TTITLE5=Who'll Stop The Rain
TTITLE6=Bad Moon Rising
TTITLE7=Proud Mary
TTITLE8=Fortunate Son
TTITLE9=Commotion
TTITLE10=The Midnight Special
TTITLE11=The Night Time Is The Right Time
TTITLE12=Down On The Corner
TTITLE13=Keep On Chooglin'
EXTD=Live January 31, 1970
EXTT0=
EXTT1=
EXTT2=
EXTT3=
EXTT4=
EXTT5=
EXTT6=
EXTT7=
EXTT8=
EXTT9=
EXTT10=
EXTT11=
EXTT12=
EXTT13=
PLAYORDER=
